<svg width="26" height="26" viewBox="0 0 26 26" fill="none" xmlns="http://www.w3.org/2000/svg">
<path d="M13 0.75C6.23516 0.75 0.75 6.23516 0.75 13C0.75 19.7648 6.23516 25.25 13 25.25C19.7648 25.25 25.25 19.7648 25.25 13C25.25 6.23516 19.7648 0.75 13 0.75ZM17.2301 13.1777L10.5035 18.0449C10.3586 18.1488 10.1562 18.0449 10.1562 17.8672V16.5848C10.1562 16.3059 10.2902 16.0406 10.5172 15.8766L14.493 13L10.5172 10.1234C10.2902 9.95937 10.1562 9.69687 10.1562 9.41523V8.13281C10.1562 7.95508 10.3586 7.85117 10.5035 7.95508L17.2301 12.8223C17.3504 12.9098 17.3504 13.0902 17.2301 13.1777Z" fill="white"/>
</svg>
