<svg width="25" height="24" viewBox="0 0 25 24" fill="none" xmlns="http://www.w3.org/2000/svg">
<path fill-rule="evenodd" clip-rule="evenodd" d="M15.719 6.969C15.7887 6.89915 15.8714 6.84374 15.9625 6.80593C16.0537 6.76812 16.1513 6.74866 16.25 6.74866C16.3486 6.74866 16.4463 6.76812 16.5374 6.80593C16.6286 6.84374 16.7113 6.89915 16.781 6.969L21.281 11.469C21.3508 11.5387 21.4063 11.6214 21.4441 11.7125C21.4819 11.8037 21.5013 11.9013 21.5013 12C21.5013 12.0986 21.4819 12.1963 21.4441 12.2874C21.4063 12.3786 21.3508 12.4613 21.281 12.531L16.781 17.031C16.6402 17.1718 16.4492 17.2509 16.25 17.2509C16.0508 17.2509 15.8598 17.1718 15.719 17.031C15.5782 16.8902 15.4991 16.6992 15.4991 16.5C15.4991 16.3008 15.5782 16.1098 15.719 15.969L19.6895 12L15.719 8.031C15.6492 7.96133 15.5937 7.87857 15.5559 7.78745C15.5181 7.69633 15.4987 7.59865 15.4987 7.5C15.4987 7.40135 15.5181 7.30366 15.5559 7.21255C15.5937 7.12143 15.6492 7.03867 15.719 6.969Z" fill="white"/>
<path fill-rule="evenodd" clip-rule="evenodd" d="M3.5 12C3.5 11.8011 3.57902 11.6103 3.71967 11.4697C3.86032 11.329 4.05109 11.25 4.25 11.25H20C20.1989 11.25 20.3897 11.329 20.5303 11.4697C20.671 11.6103 20.75 11.8011 20.75 12C20.75 12.1989 20.671 12.3897 20.5303 12.5303C20.3897 12.671 20.1989 12.75 20 12.75H4.25C4.05109 12.75 3.86032 12.671 3.71967 12.5303C3.57902 12.3897 3.5 12.1989 3.5 12Z" fill="white"/>
</svg>
