<svg width="35" height="35" viewBox="0 0 35 35" fill="none" xmlns="http://www.w3.org/2000/svg">
<path d="M11.214 20.27V30H9.604V22.706L6.79 30H5.39L2.562 22.706V30H0.966V20.27H2.898L6.118 28.04L9.282 20.27H11.214ZM16.422 22.188C17.1686 22.188 17.8406 22.3467 18.438 22.664C19.0353 22.9813 19.502 23.4387 19.838 24.036C20.174 24.6333 20.342 25.3333 20.342 26.136C20.342 26.948 20.174 27.6527 19.838 28.25C19.502 28.8473 19.0353 29.3047 18.438 29.622C17.8406 29.9393 17.1686 30.098 16.422 30.098C15.6753 30.098 15.0033 29.9393 14.406 29.622C13.818 29.3047 13.3513 28.8473 13.006 28.25C12.67 27.6433 12.502 26.9387 12.502 26.136C12.502 25.3333 12.67 24.6333 13.006 24.036C13.3513 23.4387 13.818 22.9813 14.406 22.664C15.0033 22.3467 15.6753 22.188 16.422 22.188ZM16.422 23.574C16.0113 23.574 15.6333 23.6673 15.288 23.854C14.9426 24.0407 14.6626 24.33 14.448 24.722C14.2426 25.1047 14.14 25.576 14.14 26.136C14.14 26.7053 14.2426 27.1813 14.448 27.564C14.6626 27.9467 14.9426 28.2313 15.288 28.418C15.6333 28.6047 16.0113 28.698 16.422 28.698C16.8326 28.698 17.2106 28.6047 17.556 28.418C17.9013 28.2313 18.1766 27.9467 18.382 27.564C18.5966 27.1813 18.704 26.7053 18.704 26.136C18.704 25.576 18.5966 25.1047 18.382 24.722C18.1766 24.33 17.9013 24.0407 17.556 23.854C17.2106 23.6673 16.8326 23.574 16.422 23.574ZM23.2324 23.798C23.4937 23.294 23.8671 22.8973 24.3524 22.608C24.8377 22.3093 25.3977 22.16 26.0324 22.16V23.896H25.5564C24.8564 23.896 24.2917 24.0687 23.8624 24.414C23.4424 24.75 23.2324 25.31 23.2324 26.094V30H21.6364V22.286H23.2324V23.798ZM34.1562 25.772C34.1562 26.0333 34.1375 26.262 34.1002 26.458H28.1642C28.1922 27.2513 28.4115 27.8393 28.8222 28.222C29.2329 28.6047 29.7415 28.796 30.3482 28.796C30.8802 28.796 31.3282 28.6607 31.6922 28.39C32.0655 28.1193 32.2942 27.76 32.3782 27.312H34.0862C33.9835 27.8533 33.7689 28.334 33.4422 28.754C33.1155 29.174 32.6909 29.5053 32.1682 29.748C31.6455 29.9813 31.0622 30.098 30.4182 30.098C29.6715 30.098 29.0089 29.9393 28.4302 29.622C27.8609 29.3047 27.4129 28.8473 27.0862 28.25C26.7595 27.6527 26.5962 26.948 26.5962 26.136C26.5962 25.3333 26.7595 24.6333 27.0862 24.036C27.4129 23.4387 27.8609 22.9813 28.4302 22.664C29.0089 22.3467 29.6715 22.188 30.4182 22.188C31.1742 22.188 31.8322 22.3467 32.3922 22.664C32.9615 22.972 33.3955 23.4013 33.6942 23.952C34.0022 24.4933 34.1562 25.1 34.1562 25.772ZM32.5462 25.73C32.5649 25.226 32.4762 24.806 32.2802 24.47C32.0935 24.1247 31.8322 23.8727 31.4962 23.714C31.1695 23.546 30.8102 23.462 30.4182 23.462C29.7929 23.462 29.2702 23.6533 28.8502 24.036C28.4302 24.4187 28.2015 24.9833 28.1642 25.73H32.5462Z" fill="#667C8A"/>
<path d="M23 2.5C23 1.83696 23.2634 1.20107 23.7322 0.732234C24.2011 0.263393 24.837 0 25.5 0C26.163 0 26.7989 0.263393 27.2678 0.732234C27.7366 1.20107 28 1.83696 28 2.5C28 3.16304 27.7366 3.79893 27.2678 4.26777C26.7989 4.73661 26.163 5 25.5 5C24.837 5 24.2011 4.73661 23.7322 4.26777C23.2634 3.79893 23 3.16304 23 2.5ZM15.5 2.5C15.5 1.83696 15.7634 1.20107 16.2322 0.732234C16.7011 0.263393 17.337 0 18 0C18.663 0 19.2989 0.263393 19.7678 0.732234C20.2366 1.20107 20.5 1.83696 20.5 2.5C20.5 3.16304 20.2366 3.79893 19.7678 4.26777C19.2989 4.73661 18.663 5 18 5C17.337 5 16.7011 4.73661 16.2322 4.26777C15.7634 3.79893 15.5 3.16304 15.5 2.5ZM8 2.5C8 1.83696 8.26339 1.20107 8.73223 0.732234C9.20107 0.263393 9.83696 0 10.5 0C11.163 0 11.7989 0.263393 12.2678 0.732234C12.7366 1.20107 13 1.83696 13 2.5C13 3.16304 12.7366 3.79893 12.2678 4.26777C11.7989 4.73661 11.163 5 10.5 5C9.83696 5 9.20107 4.73661 8.73223 4.26777C8.26339 3.79893 8 3.16304 8 2.5Z" fill="#667C8A"/>
</svg>
